<?xml version="1.0" encoding="UTF-8"?>
		<!DOCTYPE svg PUBLIC "-//W3C//DTD SVG 1.1//EN" "http://www.w3.org/Graphics/SVG/1.1/DTD/svg11.dtd">
		<svg version="1.1" id="Layer_1" xmlns="http://www.w3.org/2000/svg" xmlns:xlink="http://www.w3.org/1999/xlink" x="0px" y="0px"
		 width="1700px" height="527.74301697884px" viewBox="0 0 357 89.263024254861"
		 style="enable-background:new 0 0 317 69.263024254861;" xml:space="preserve"><style type='text/css'>.title{fill:#00672c;}.slogan{fill:#00672c;}</style><g transform="scale(1.4172042693279) translate(0, 0)"><g>
	<path fill-rule="evenodd" clip-rule="evenodd" fill="#1DBDCA" d="M7.927,22.902V0h3.727v17.697h2.623V0h2.555
		c8.811,0,15.996,7.186,15.996,15.996v21.713c-2.08-6.481-7.105-8.016-13.24-9.888c-3.518-1.073-7.422-2.266-11.275-4.679
		L7.927,22.902z M59.813,22.902V0h-8.904c-8.811,0-15.996,7.186-15.996,15.996v21.713c2.08-6.481,7.105-8.016,13.24-9.888
		c3.516-1.073,7.422-2.266,11.275-4.679L59.813,22.902z"/>
	<path fill-rule="evenodd" clip-rule="evenodd" fill="#1D99B7" d="M23.655,29.137V1.535c5.412,2.569,9.172,8.09,9.172,14.461v21.713
		C31.229,32.731,27.896,30.672,23.655,29.137 M44.085,1.535c-5.412,2.569-9.172,8.09-9.172,14.461v21.713
		c1.598-4.978,4.932-7.037,9.172-8.572V1.535z"/>
	<g>
		<path fill="#2D8E38" d="M32.858,48.873c-8.695-7.053-32.457-3.42-32.162-22.822c0.051-3.329-0.695-10.505-0.695-10.505
			c7.926,0.044-0.611,21.57,18.238,19.28c0,0-11.768-1.998-10.428-9.881C20.794,33.075,33.831,27.566,32.858,48.873"/>
		<path fill="#2D8E38" d="M34.88,48.873c8.697-7.053,32.459-3.42,32.164-22.822c-0.051-3.329,0.695-10.505,0.695-10.505
			c-7.926,0.044,0.611,21.57-18.238,19.28c0,0,11.768-1.998,10.428-9.881C46.946,33.075,33.909,27.566,34.88,48.873"/>
	</g>
	<g>
		<path fill="#1FA63F" d="M0.812,28.648c-0.09-0.816-0.129-1.681-0.115-2.598c0.051-3.329-0.695-10.505-0.695-10.505
			c7.926,0.044-0.611,21.57,18.238,19.28c0,0-11.768-1.998-10.428-9.881c8.963,5.613,17.951,4.727,22.338,10.649
			c-3.279,2.493-7.369,3.974-11.807,3.974C10.647,39.568,3.993,35.117,0.812,28.648"/>
		<path fill="#1FA63F" d="M66.929,28.648c0.09-0.816,0.129-1.681,0.115-2.598c-0.051-3.329,0.695-10.505,0.695-10.505
			c-7.926,0.044,0.611,21.57-18.238,19.28c0,0,11.768-1.998,10.428-9.881c-8.963,5.613-17.951,4.727-22.338,10.649
			c3.279,2.493,7.369,3.974,11.807,3.974C57.093,39.568,63.747,35.117,66.929,28.648"/>
	</g>
</g>
</g><g transform="scale(0.0255) translate(4392.1568627451, 1307.1181226443)"><path transform="translate(0,0) rotate(180) scale(-1, 1)" d="M89 0v700h183v-535h203v535h183v-545h71v-234h-147v79h-493z" class='title'/><path transform="translate(749,0) rotate(180) scale(-1, 1)" d="M526 700v-160h-259v-99h238v-159h-238v-123h268v-159h-446v700h437z" class='title'/><path transform="translate(1349,0) rotate(180) scale(-1, 1)" d="M672 700v-700h-183v281h-216v-281h-183v700h183v-254h216v254h183z" class='title'/><path transform="translate(2111,0) rotate(180) scale(-1, 1)" d="M192 540h-172v160h520v-160h-171v-540h-177v540z" class='title'/><path transform="translate(2673,0) rotate(180) scale(-1, 1)" d="M268 0h-179v700h308c335 -1 335 -521 0 -521h-129v-179zM396 340c98 0 104 199 0 200c-42 1 -87 0 -128 0v-200h128z" class='title'/><path transform="translate(3642,0) rotate(180) scale(-1, 1)" d="M764 349c0 -485 -718 -485 -718 0c0 484 718 484 718 0zM230 349c0 -254 351 -254 351 0c0 252 -351 252 -351 0z" class='title'/><path transform="translate(4452,0) rotate(180) scale(-1, 1)" d="M192 540h-172v160h520v-160h-171v-540h-177v540z" class='title'/><path transform="translate(5289,0) rotate(180) scale(-1, 1)" d="M507 344l-353 -345h-64v701h183v-343l354 346h65v-703h-185v344z" class='title'/><path transform="translate(6346,0) rotate(180) scale(-1, 1)" d="M150 -2v-77h-148v234h71l240 554h77l248 -554h73v-234h-147v77h-414zM351 410l-97 -253h198z" class='title'/><path transform="translate(7058,0) rotate(180) scale(-1, 1)" d="M764 349c0 -485 -718 -485 -718 0c0 484 718 484 718 0zM230 349c0 -254 351 -254 351 0c0 252 -351 252 -351 0z" class='title'/></g><g transform="scale(0.008) translate(14000, 5741.4390159288)"><path transform="translate(0,0) rotate(180) scale(-1, 1)" d="M549 655c6 0 10 -4 10 -10v-568h58c6 0 10 -4 10 -10v-187c0 -6 -4 -10 -10 -10h-65c-6 0 -10 4 -10 10v120h-447c-6 0 -10 4 -10 10v635c0 6 4 10 10 10h65c6 0 10 -4 10 -10v-568h304v568c0 6 4 10 10 10h65z" class='slogan'/><path transform="translate(652,0) rotate(180) scale(-1, 1)" d="M147 223v-32c0 -90 35 -128 119 -128c63 0 97 21 98 61c0 7 5 11 11 11h65c5 0 9 -4 10 -9c5 -85 -68 -138 -189 -138c-128 0 -195 60 -199 178v140c0 126 70 194 199 194s198 -66 198 -189v-78c0 -6 -4 -10 -10 -10h-302zM262 425c-78 0 -115 -42 -115 -129h227 c0 88 -35 129 -112 129z" class='slogan'/><path transform="translate(1171,0) rotate(180) scale(-1, 1)" d="M459 488c6 0 10 -4 10 -10v-468c0 -6 -4 -10 -10 -10h-65c-6 0 -10 4 -10 10v203h-224v-203c0 -6 -4 -10 -10 -10h-65c-6 0 -10 4 -10 10v468c0 6 4 10 10 10h65c6 0 10 -4 10 -10v-192h224v192c0 6 4 10 10 10h65z" class='slogan'/><path transform="translate(1715,0) rotate(180) scale(-1, 1)" d="M400 488c6 0 10 -4 10 -10v-53c0 -6 -4 -10 -10 -10h-142v-405c0 -6 -4 -10 -10 -10h-65c-6 0 -10 4 -10 10v405h-143c-6 0 -10 4 -10 10v53c0 6 4 10 10 10h370z" class='slogan'/><path transform="translate(2145,0) rotate(180) scale(-1, 1)" d="M323 500c98 0 150 -61 150 -186v-125c0 -129 -63 -201 -179 -201c-46 0 -100 11 -134 30v-193c0 -6 -4 -10 -10 -10h-65c-6 0 -10 4 -10 10v550c0 30 -3 72 -7 101c-1 8 4 12 10 12h61c7 0 10 -3 11 -10c2 -11 6 -36 7 -52c60 52 107 74 166 74zM388 199v110 c0 80 -28 116 -83 116c-43 0 -80 -20 -145 -76v-259c36 -18 80 -27 116 -27c77 0 112 45 112 136z" class='slogan'/><path transform="translate(2892,0) rotate(180) scale(-1, 1)" d="M268 500c134 0 206 -65 206 -198v-116c0 -133 -70 -198 -206 -198c-135 0 -206 65 -206 198v116c0 133 70 198 206 198zM389 294c0 88 -36 131 -121 131s-121 -43 -121 -131v-100c0 -88 36 -131 121 -131s121 43 121 131v100z" class='slogan'/><path transform="translate(3428,0) rotate(180) scale(-1, 1)" d="M445 488c8 0 11 -6 6 -12l-161 -222l175 -242c5 -6 2 -12 -6 -12h-78c-5 0 -9 1 -12 6l-132 186l-130 -186c-3 -5 -7 -6 -12 -6h-77c-8 0 -11 6 -6 12l173 239l-161 225c-5 6 -2 12 6 12h78c5 0 9 -1 12 -6l119 -171l121 171c3 5 7 6 12 6h73z" class='slogan'/><path transform="translate(3905,0) rotate(180) scale(-1, 1)" d="M323 500c98 0 150 -61 150 -186v-125c0 -129 -63 -201 -179 -201c-46 0 -100 11 -134 30v-193c0 -6 -4 -10 -10 -10h-65c-6 0 -10 4 -10 10v550c0 30 -3 72 -7 101c-1 8 4 12 10 12h61c7 0 10 -3 11 -10c2 -11 6 -36 7 -52c60 52 107 74 166 74zM388 199v110 c0 80 -28 116 -83 116c-43 0 -80 -20 -145 -76v-259c36 -18 80 -27 116 -27c77 0 112 45 112 136z" class='slogan'/><path transform="translate(4442,0) rotate(180) scale(-1, 1)" d="M419 121c0 -47 2 -83 7 -110c1 -7 -3 -11 -10 -11h-58c-8 0 -10 6 -12 14c-2 9 -6 38 -8 64c-63 -64 -113 -90 -171 -90c-78 0 -119 47 -119 137c0 104 56 146 208 160l78 7v41c0 67 -24 92 -90 92c-60 0 -91 -21 -90 -62c0 -6 -3 -10 -9 -10h-66c-7 0 -10 5 -11 19 c-7 76 66 128 179 128c116 0 172 -54 172 -165v-214zM133 131c0 -46 18 -68 56 -68c40 0 78 23 145 87v77l-80 -7c-92 -8 -121 -29 -121 -89z" class='slogan'/><path transform="translate(4936,0) rotate(180) scale(-1, 1)" d="M459 488c6 0 10 -4 10 -10v-468c0 -6 -4 -10 -10 -10h-65c-6 0 -10 4 -10 10v203h-224v-203c0 -6 -4 -10 -10 -10h-65c-6 0 -10 4 -10 10v468c0 6 4 10 10 10h65c6 0 10 -4 10 -10v-192h224v192c0 6 4 10 10 10h65z" class='slogan'/><path transform="translate(5480,0) rotate(180) scale(-1, 1)" d="M245 328c118 0 188 -56 188 -150v-18c0 -93 -79 -160 -190 -160h-158c-6 0 -10 4 -10 10v468c0 6 4 10 10 10h65c6 0 10 -4 10 -10v-150h85zM616 488c6 0 10 -4 10 -10v-468c0 -6 -4 -10 -10 -10h-65c-6 0 -10 4 -10 10v468c0 6 4 10 10 10h65zM348 159v17 c0 52 -36 79 -107 79h-81v-181h86c64 0 102 32 102 85z" class='slogan'/><path transform="translate(6391,0) rotate(180) scale(-1, 1)" d="M400 488c6 0 10 -4 10 -10v-53c0 -6 -4 -10 -10 -10h-142v-405c0 -6 -4 -10 -10 -10h-65c-6 0 -10 4 -10 10v405h-143c-6 0 -10 4 -10 10v53c0 6 4 10 10 10h370z" class='slogan'/><path transform="translate(6821,0) rotate(180) scale(-1, 1)" d="M323 500c98 0 150 -61 150 -186v-125c0 -129 -63 -201 -179 -201c-46 0 -100 11 -134 30v-193c0 -6 -4 -10 -10 -10h-65c-6 0 -10 4 -10 10v550c0 30 -3 72 -7 101c-1 8 4 12 10 12h61c7 0 10 -3 11 -10c2 -11 6 -36 7 -52c60 52 107 74 166 74zM388 199v110 c0 80 -28 116 -83 116c-43 0 -80 -20 -145 -76v-259c36 -18 80 -27 116 -27c77 0 112 45 112 136z" class='slogan'/><path transform="translate(7358,0) rotate(180) scale(-1, 1)" d="M466 488c7 0 11 -5 8 -12l-253 -653c-2 -6 -6 -8 -11 -8h-65c-7 0 -10 5 -7 12l71 179l-185 470c-3 7 0 12 7 12h71c5 0 9 -2 11 -8l137 -369l137 369c2 6 7 8 12 8h67z" class='slogan'/><path transform="translate(7854,0) rotate(180) scale(-1, 1)" d="M475 73c6 0 10 -4 10 -10v-173c0 -6 -4 -10 -10 -10h-60c-6 0 -10 4 -10 10v110h-315v-110c0 -6 -4 -10 -10 -10h-60c-6 0 -10 4 -10 10v173c0 6 4 10 10 10h35c20 7 29 30 34 96l26 308c1 8 6 11 11 11h295c7 0 10 -5 10 -11v-404h44zM172 172c-4 -44 -13 -76 -27 -99 h201v342h-154z" class='slogan'/><path transform="translate(8370,0) rotate(180) scale(-1, 1)" d="M419 121c0 -47 2 -83 7 -110c1 -7 -3 -11 -10 -11h-58c-8 0 -10 6 -12 14c-2 9 -6 38 -8 64c-63 -64 -113 -90 -171 -90c-78 0 -119 47 -119 137c0 104 56 146 208 160l78 7v41c0 67 -24 92 -90 92c-60 0 -91 -21 -90 -62c0 -6 -3 -10 -9 -10h-66c-7 0 -10 5 -11 19 c-7 76 66 128 179 128c116 0 172 -54 172 -165v-214zM133 131c0 -46 18 -68 56 -68c40 0 78 23 145 87v77l-80 -7c-92 -8 -121 -29 -121 -89z" class='slogan'/><path transform="translate(9074,0) rotate(180) scale(-1, 1)" d="M459 488c6 0 10 -4 10 -10v-468c0 -6 -4 -10 -10 -10h-64c-6 0 -10 4 -10 10v253l9 111h-2l-57 -94l-176 -274c-2 -4 -6 -6 -9 -6h-65c-6 0 -10 4 -10 10v468c0 6 4 10 10 10h64c6 0 10 -4 10 -10v-255l-8 -112h2l58 96l174 273c4 6 8 8 14 8h60z" class='slogan'/><path transform="translate(9828,0) rotate(180) scale(-1, 1)" d="M475 73c6 0 10 -4 10 -10v-173c0 -6 -4 -10 -10 -10h-60c-6 0 -10 4 -10 10v110h-315v-110c0 -6 -4 -10 -10 -10h-60c-6 0 -10 4 -10 10v173c0 6 4 10 10 10h35c20 7 29 30 34 96l26 308c1 8 6 11 11 11h295c7 0 10 -5 10 -11v-404h44zM172 172c-4 -44 -13 -76 -27 -99 h201v342h-154z" class='slogan'/><path transform="translate(10344,0) rotate(180) scale(-1, 1)" d="M268 500c134 0 206 -65 206 -198v-116c0 -133 -70 -198 -206 -198c-135 0 -206 65 -206 198v116c0 133 70 198 206 198zM389 294c0 88 -36 131 -121 131s-121 -43 -121 -131v-100c0 -88 36 -131 121 -131s121 43 121 131v100z" class='slogan'/><path transform="translate(10880,0) rotate(180) scale(-1, 1)" d="M463 488c6 0 10 -4 10 -10v-468c0 -6 -4 -10 -10 -10h-65c-6 0 -10 4 -10 10v405h-228v-405c0 -6 -4 -10 -10 -10h-65c-6 0 -10 4 -10 10v468c0 6 4 10 10 10h378z" class='slogan'/><path transform="translate(11428,0) rotate(180) scale(-1, 1)" d="M268 500c134 0 206 -65 206 -198v-116c0 -133 -70 -198 -206 -198c-135 0 -206 65 -206 198v116c0 133 70 198 206 198zM389 294c0 88 -36 131 -121 131s-121 -43 -121 -131v-100c0 -88 36 -131 121 -131s121 43 121 131v100z" class='slogan'/><path transform="translate(11964,0) rotate(180) scale(-1, 1)" d="M112 477c1 8 6 11 11 11h301c7 0 10 -5 10 -11v-467c0 -6 -4 -10 -10 -10h-65c-6 0 -10 4 -10 10v405h-159l-20 -239c-11 -137 -47 -188 -140 -188c-8 0 -20 1 -26 2s-9 4 -9 10v52c0 6 4 10 10 9c8 -1 16 -1 23 -1c36 0 51 22 58 109z" class='slogan'/><path transform="translate(12473,0) rotate(180) scale(-1, 1)" d="M459 488c6 0 10 -4 10 -10v-468c0 -6 -4 -10 -10 -10h-65c-6 0 -10 4 -10 10v203h-224v-203c0 -6 -4 -10 -10 -10h-65c-6 0 -10 4 -10 10v468c0 6 4 10 10 10h65c6 0 10 -4 10 -10v-192h224v192c0 6 4 10 10 10h65z" class='slogan'/><path transform="translate(13017,0) rotate(180) scale(-1, 1)" d="M459 488c6 0 10 -4 10 -10v-468c0 -6 -4 -10 -10 -10h-64c-6 0 -10 4 -10 10v253l9 111h-2l-57 -94l-176 -274c-2 -4 -6 -6 -9 -6h-65c-6 0 -10 4 -10 10v468c0 6 4 10 10 10h64c6 0 10 -4 10 -10v-255l-8 -112h2l58 96l174 273c4 6 8 8 14 8h60z" class='slogan'/><path transform="translate(13561,0) rotate(180) scale(-1, 1)" d="M400 488c6 0 10 -4 10 -10v-53c0 -6 -4 -10 -10 -10h-142v-405c0 -6 -4 -10 -10 -10h-65c-6 0 -10 4 -10 10v405h-143c-6 0 -10 4 -10 10v53c0 6 4 10 10 10h370z" class='slogan'/><path transform="translate(13991,0) rotate(180) scale(-1, 1)" d="M147 223v-32c0 -90 35 -128 119 -128c63 0 97 21 98 61c0 7 5 11 11 11h65c5 0 9 -4 10 -9c5 -85 -68 -138 -189 -138c-128 0 -195 60 -199 178v140c0 126 70 194 199 194s198 -66 198 -189v-78c0 -6 -4 -10 -10 -10h-302zM262 425c-78 0 -115 -42 -115 -129h227 c0 88 -35 129 -112 129z" class='slogan'/><path transform="translate(14510,0) rotate(180) scale(-1, 1)" d="M112 477c1 8 6 11 11 11h301c7 0 10 -5 10 -11v-467c0 -6 -4 -10 -10 -10h-65c-6 0 -10 4 -10 10v405h-159l-20 -239c-11 -137 -47 -188 -140 -188c-8 0 -20 1 -26 2s-9 4 -9 10v52c0 6 4 10 10 9c8 -1 16 -1 23 -1c36 0 51 22 58 109z" class='slogan'/><path transform="translate(15019,0) rotate(180) scale(-1, 1)" d="M245 328c118 0 188 -56 188 -150v-18c0 -93 -79 -160 -190 -160h-158c-6 0 -10 4 -10 10v468c0 6 4 10 10 10h65c6 0 10 -4 10 -10v-150h85zM348 159v17c0 52 -36 79 -107 79h-81v-181h86c64 0 102 32 102 85z" class='slogan'/><path transform="translate(15507,0) rotate(180) scale(-1, 1)" d="M459 488c6 0 10 -4 10 -10v-468c0 -6 -4 -10 -10 -10h-65c-6 0 -10 4 -10 10v203h-224v-203c0 -6 -4 -10 -10 -10h-65c-6 0 -10 4 -10 10v468c0 6 4 10 10 10h65c6 0 10 -4 10 -10v-192h224v192c0 6 4 10 10 10h65z" class='slogan'/><path transform="translate(16051,0) rotate(180) scale(-1, 1)" d="M268 500c134 0 206 -65 206 -198v-116c0 -133 -70 -198 -206 -198c-135 0 -206 65 -206 198v116c0 133 70 198 206 198zM389 294c0 88 -36 131 -121 131s-121 -43 -121 -131v-100c0 -88 36 -131 121 -131s121 43 121 131v100z" class='slogan'/><path transform="translate(16587,0) rotate(180) scale(-1, 1)" d="M355 488c6 0 10 -4 10 -10v-53c0 -6 -4 -10 -10 -10h-195v-405c0 -6 -4 -10 -10 -10h-65c-6 0 -10 4 -10 10v468c0 6 4 10 10 10h270z" class='slogan'/><path transform="translate(16972,0) rotate(180) scale(-1, 1)" d="M268 500c134 0 206 -65 206 -198v-116c0 -133 -70 -198 -206 -198c-135 0 -206 65 -206 198v116c0 133 70 198 206 198zM389 294c0 88 -36 131 -121 131s-121 -43 -121 -131v-100c0 -88 36 -131 121 -131s121 43 121 131v100z" class='slogan'/><path transform="translate(17718,0) rotate(180) scale(-1, 1)" d="M268 500c134 0 206 -65 206 -198v-116c0 -133 -70 -198 -206 -198c-135 0 -206 65 -206 198v116c0 133 70 198 206 198zM389 294c0 88 -36 131 -121 131s-121 -43 -121 -131v-100c0 -88 36 -131 121 -131s121 43 121 131v100z" class='slogan'/><path transform="translate(18254,0) rotate(180) scale(-1, 1)" d="M324 466c95 0 156 -55 156 -167v-117c0 -128 -70 -194 -204 -194c-135 0 -201 63 -201 194v232c0 122 42 180 102 212c76 40 167 38 225 77c6 4 11 1 13 -6l17 -58c1 -5 1 -9 -4 -13c-42 -34 -129 -30 -201 -63c-45 -21 -67 -63 -67 -126v-50c42 50 97 79 164 79z M395 190v97c0 74 -34 103 -88 103c-53 0 -109 -31 -147 -82v-118c0 -86 33 -127 118 -127c84 0 117 44 117 127z" class='slogan'/><path transform="translate(18799,0) rotate(180) scale(-1, 1)" d="M323 500c98 0 150 -61 150 -186v-125c0 -129 -63 -201 -179 -201c-46 0 -100 11 -134 30v-193c0 -6 -4 -10 -10 -10h-65c-6 0 -10 4 -10 10v550c0 30 -3 72 -7 101c-1 8 4 12 10 12h61c7 0 10 -3 11 -10c2 -11 6 -36 7 -52c60 52 107 74 166 74zM388 199v110 c0 80 -28 116 -83 116c-43 0 -80 -20 -145 -76v-259c36 -18 80 -27 116 -27c77 0 112 45 112 136z" class='slogan'/><path transform="translate(19336,0) rotate(180) scale(-1, 1)" d="M419 121c0 -47 2 -83 7 -110c1 -7 -3 -11 -10 -11h-58c-8 0 -10 6 -12 14c-2 9 -6 38 -8 64c-63 -64 -113 -90 -171 -90c-78 0 -119 47 -119 137c0 104 56 146 208 160l78 7v41c0 67 -24 92 -90 92c-60 0 -91 -21 -90 -62c0 -6 -3 -10 -9 -10h-66c-7 0 -10 5 -11 19 c-7 76 66 128 179 128c116 0 172 -54 172 -165v-214zM133 131c0 -46 18 -68 56 -68c40 0 78 23 145 87v77l-80 -7c-92 -8 -121 -29 -121 -89z" class='slogan'/><path transform="translate(19830,0) rotate(180) scale(-1, 1)" d="M234 61c75 0 113 23 113 67v12c0 46 -40 74 -110 74h-78c-6 0 -10 4 -10 10v47c0 6 4 10 10 10h58c78 0 123 25 123 69v10c0 40 -32 67 -98 67c-64 0 -102 -21 -102 -59c0 -10 -3 -15 -9 -15h-64c-7 0 -12 4 -13 17c-6 76 66 130 195 130c114 0 172 -43 172 -128v-11 c0 -49 -34 -97 -83 -114c57 -13 94 -55 94 -107v-12c0 -90 -74 -140 -197 -140c-129 0 -199 53 -189 129c2 13 6 18 13 18h64c6 0 9 -5 9 -15c1 -39 32 -59 102 -59z" class='slogan'/><path transform="translate(20321,0) rotate(180) scale(-1, 1)" d="M268 500c134 0 206 -65 206 -198v-116c0 -133 -70 -198 -206 -198c-135 0 -206 65 -206 198v116c0 133 70 198 206 198zM389 294c0 88 -36 131 -121 131s-121 -43 -121 -131v-100c0 -88 36 -131 121 -131s121 43 121 131v100z" class='slogan'/><path transform="translate(20857,0) rotate(180) scale(-1, 1)" d="M353 259c58 -13 95 -57 95 -112v-12c0 -91 -57 -135 -176 -135h-187c-6 0 -10 4 -10 10v468c0 6 4 10 10 10h179c109 0 165 -40 165 -119v-10c0 -48 -29 -86 -76 -100zM269 415h-109v-130h112c47 0 76 24 76 63v10c0 37 -28 57 -79 57zM363 138v10c0 45 -29 70 -82 70 h-121v-145h117c57 0 86 22 86 65z" class='slogan'/><path transform="translate(21365,0) rotate(180) scale(-1, 1)" d="M419 121c0 -47 2 -83 7 -110c1 -7 -3 -11 -10 -11h-58c-8 0 -10 6 -12 14c-2 9 -6 38 -8 64c-63 -64 -113 -90 -171 -90c-78 0 -119 47 -119 137c0 104 56 146 208 160l78 7v41c0 67 -24 92 -90 92c-60 0 -91 -21 -90 -62c0 -6 -3 -10 -9 -10h-66c-7 0 -10 5 -11 19 c-7 76 66 128 179 128c116 0 172 -54 172 -165v-214zM133 131c0 -46 18 -68 56 -68c40 0 78 23 145 87v77l-80 -7c-92 -8 -121 -29 -121 -89z" class='slogan'/><path transform="translate(21859,0) rotate(180) scale(-1, 1)" d="M459 488c6 0 10 -4 10 -10v-468c0 -6 -4 -10 -10 -10h-65c-6 0 -10 4 -10 10v203h-224v-203c0 -6 -4 -10 -10 -10h-65c-6 0 -10 4 -10 10v468c0 6 4 10 10 10h65c6 0 10 -4 10 -10v-192h224v192c0 6 4 10 10 10h65z" class='slogan'/><path transform="translate(22403,0) rotate(180) scale(-1, 1)" d="M459 488c6 0 10 -4 10 -10v-468c0 -6 -4 -10 -10 -10h-64c-6 0 -10 4 -10 10v253l9 111h-2l-57 -94l-176 -274c-2 -4 -6 -6 -9 -6h-65c-6 0 -10 4 -10 10v468c0 6 4 10 10 10h64c6 0 10 -4 10 -10v-255l-8 -112h2l58 96l174 273c4 6 8 8 14 8h60z" class='slogan'/><path transform="translate(22947,0) rotate(180) scale(-1, 1)" d="M421 488c6 0 10 -4 10 -10v-468c0 -6 -4 -10 -10 -10h-65c-6 0 -10 4 -10 10v174h-104l-109 -177c-3 -5 -7 -7 -13 -7h-75c-8 0 -11 5 -7 12l119 183c-64 19 -99 64 -99 127v22c0 86 72 144 180 144h183zM346 256v159h-108c-63 0 -95 -23 -95 -67v-19 c0 -49 37 -73 112 -73h91z" class='slogan'/></g></svg>